<svg width="37" height="39" viewBox="0 0 37 39" fill="none" xmlns="http://www.w3.org/2000/svg">
<path d="M23.3543 23.5229L36.3887 0.6875H27.6543L14.5863 23.5145C14.57 23.5346 14.561 23.5598 14.561 23.5858C14.561 23.6118 14.57 23.637 14.5863 23.6572L22.8924 38.2537C22.926 38.3125 22.9596 38.3125 23.0268 38.3125H31.6855L23.3459 23.6404C23.3391 23.6213 23.3363 23.601 23.3377 23.5808C23.3392 23.5605 23.3448 23.5408 23.3543 23.5229ZM15.6361 16.1574L10.6895 7.49023C10.673 7.4611 10.6482 7.43754 10.6183 7.42257C10.5884 7.40761 10.5547 7.40193 10.5215 7.40625H2.45898L7.40566 16.1742C7.41663 16.1948 7.41962 16.2187 7.41406 16.2414L0.611328 27.5625H8.74102C8.76856 27.566 8.7965 27.5605 8.8207 27.5469C8.8449 27.5333 8.86407 27.5123 8.87539 27.4869L15.6361 16.2582C15.6445 16.2251 15.6445 16.1905 15.6361 16.1574Z" fill="#00373E"/>
</svg>
