<svg width="51" height="51" viewBox="0 0 51 51" fill="none" xmlns="http://www.w3.org/2000/svg">
<g filter="url(#filter0_d_1_148)">
<path d="M25.5 0C13.6226 0 4 9.62259 4 21.5C4 33.3774 13.6226 43 25.5 43C37.3774 43 47 33.3774 47 21.5C47 9.62259 37.3774 0 25.5 0ZM16.4713 13.76C17.8218 13.76 18.8726 14.745 18.9909 15.9087C19.1185 16.9581 18.6832 17.8759 17.5222 18.4282C16.9054 18.7359 16.6608 18.7359 16.5345 18.5532C16.4713 18.4282 16.5345 18.3099 16.6595 18.1823C17.7667 17.2672 17.7667 16.5254 17.6391 15.4827C17.5759 14.8041 17.0868 14.3754 16.5963 14.3754C14.4409 14.3754 11.3758 19.1632 11.8018 22.6691C11.9913 24.0195 12.7895 25.6159 14.5041 25.6159C15.0577 25.6159 15.6745 25.4332 16.2254 25.1899C17.1217 24.7129 17.6606 24.3501 18.1927 23.7548C18.0597 22.1652 19.4518 20.0877 21.5091 20.0877C22.4336 20.0877 23.1686 20.4586 23.2304 21.1372C23.35 22.055 22.5518 22.1799 22.3072 22.1799C22.0613 22.1799 21.6287 22.1168 21.6287 21.8722C21.5736 21.6263 22.1809 21.7472 22.1245 21.1936C22.0613 20.8228 21.6905 20.7045 21.3277 20.7045C20.0323 20.7045 19.2973 22.489 19.48 23.5868C19.5432 24.0827 19.7864 24.5745 20.2849 24.5745C20.6491 24.5745 21.2027 24.0209 21.3827 23.224C21.5077 22.6704 21.9995 22.2995 22.4322 22.2995C22.615 22.2995 22.7332 22.3627 22.7964 22.6072V22.8532C22.7413 23.0991 22.5505 23.8408 22.615 24.0209C22.615 24.1485 22.6781 24.3286 22.9213 24.3286C23.0826 24.3286 23.6994 24.0061 24.3148 23.5022C24.5177 22.4447 24.7623 21.1788 24.7623 21.074C24.8254 20.64 25.0082 20.2127 25.8682 20.2127C26.0563 20.2127 26.1759 20.2758 26.2391 20.5204V20.7663L25.9932 21.8722C26.7927 20.8295 27.9604 20.0944 28.6954 20.0944C29.0032 20.0944 29.2491 20.2758 29.2491 20.5836C29.2491 20.7663 29.2491 21.074 29.1214 21.3831C28.8782 22.055 28.5691 23.1044 28.3864 24.0209C28.3864 24.2668 28.4495 24.5113 28.7572 24.5113C29.065 24.5113 29.9827 24.1472 30.7178 23.1609L30.7326 23.1542C30.7326 23.0346 30.7178 22.9163 30.7178 22.7981C30.7178 22.0563 30.7809 21.4476 30.9072 21.0136C31.0322 20.5231 31.6423 20.0958 32.0132 20.0958C32.1946 20.0958 32.384 20.214 32.384 20.3968C32.384 20.4599 32.384 20.5849 32.3209 20.6427C32.075 21.4476 31.8855 22.1813 31.8855 22.9163C31.8855 23.3503 31.95 23.9591 32.075 24.3299C32.075 24.3931 32.1301 24.4549 32.1932 24.4549C32.3209 24.4549 33.1809 23.6581 33.7896 22.6072C33.236 22.2431 32.9282 21.6277 32.9282 20.8926C32.9282 19.5986 33.7345 18.9254 34.4695 18.9254C35.0863 18.9254 35.5754 19.354 35.5754 20.214C35.5754 20.7677 35.3927 21.3844 35.0863 21.9354H35.2677C35.6601 21.9502 36.0458 21.7889 36.3105 21.5094C36.3689 21.4159 36.4548 21.3427 36.5564 21.2998C37.1584 20.5365 38.0399 19.9708 39.0826 19.9708C39.9426 19.9708 40.7341 20.3417 40.7973 21.0136C40.9222 21.9367 40.1187 22.1195 39.8727 22.1195C39.6295 22.1195 39.1955 22.0563 39.1955 21.8118C39.1955 21.5672 39.7478 21.6868 39.6913 21.1399C39.6282 20.769 39.2573 20.644 38.8864 20.644C37.6609 20.644 36.8641 22.2391 37.0442 23.5344C37.1073 24.0236 37.3519 24.5772 37.8437 24.5772C38.2146 24.5772 38.7668 24.0236 39.0114 23.2267C39.1297 22.7376 39.6282 22.3022 40.0542 22.3022C40.2423 22.3022 40.3619 22.3654 40.425 22.6099C40.425 22.7376 40.425 22.9808 40.1791 23.7803C39.8714 24.3326 39.8714 24.6403 39.9359 24.8863C39.991 25.3754 40.2369 25.7462 40.4882 25.929C40.5331 25.986 40.5731 26.0467 40.6078 26.1104C40.6078 26.2381 40.5433 26.363 40.3619 26.363C40.2987 26.363 40.2423 26.363 40.1791 26.2999C39.256 25.929 38.8851 25.3122 38.7655 24.6968C38.3946 25.1308 37.9687 25.3754 37.4715 25.3754C36.6719 25.3754 35.8818 24.6403 35.7568 23.7158C35.7186 23.3238 35.764 22.9281 35.8899 22.5548C35.5257 22.786 35.1333 22.919 34.7705 22.919H34.4695C33.6646 24.0867 32.8033 24.8862 32.1946 25.2504C31.9849 25.3621 31.7532 25.4264 31.516 25.4385C31.3977 25.4385 31.2096 25.3754 31.1518 25.2504C30.9785 24.9776 30.8723 24.5503 30.8024 24.0612C29.9411 24.9978 28.7505 25.5017 28.1996 25.5017C27.5828 25.5017 27.22 25.1308 27.1568 24.5167V23.8448C27.3382 22.4944 27.8354 21.6895 27.8354 21.4436C27.8318 21.4112 27.8172 21.3811 27.7939 21.3583C27.7706 21.3355 27.7402 21.3215 27.7078 21.3186C27.2818 21.3186 25.8682 22.7954 25.6223 23.7817L25.4342 24.5785C25.3146 25.1308 24.7623 25.5017 24.3914 25.5017C24.2087 25.5017 24.0837 25.4385 24.0273 25.1953V24.9494L24.1038 24.5302C23.3258 25.0824 22.5491 25.4385 22.1782 25.4385C21.626 25.4385 21.3183 25.1308 21.2632 24.6968C20.8923 25.1953 20.4636 25.4385 19.9127 25.4385C19.2744 25.4385 18.6603 25.0045 18.366 24.3756C17.9239 24.8715 17.4268 25.3687 16.8395 25.7463C15.9795 26.2999 14.9999 26.7258 13.8295 26.7258C12.7868 26.7258 11.8636 26.1722 11.3732 25.6831C10.6314 25.0045 10.2054 23.9618 10.1423 22.9808C9.77813 19.9722 11.6191 16.1008 14.4383 14.3795C15.1168 14.0086 15.7968 13.7654 16.4687 13.7654L16.4713 13.76ZM33.975 19.6604C33.7936 19.6604 33.6687 19.9681 33.6687 20.2678C33.6687 20.7663 33.9119 21.3172 34.2209 21.6263C34.3442 21.29 34.4083 20.935 34.4104 20.5768C34.4104 19.9695 34.1645 19.6618 33.975 19.6618V19.6604Z" fill="#00373E"/>
</g>
<defs>
<filter id="filter0_d_1_148" x="0" y="0" width="51" height="51" filterUnits="userSpaceOnUse" color-interpolation-filters="sRGB">
<feFlood flood-opacity="0" result="BackgroundImageFix"/>
<feColorMatrix in="SourceAlpha" type="matrix" values="0 0 0 0 0 0 0 0 0 0 0 0 0 0 0 0 0 0 127 0" result="hardAlpha"/>
<feOffset dy="4"/>
<feGaussianBlur stdDeviation="2"/>
<feComposite in2="hardAlpha" operator="out"/>
<feColorMatrix type="matrix" values="0 0 0 0 0 0 0 0 0 0 0 0 0 0 0 0 0 0 0.25 0"/>
<feBlend mode="normal" in2="BackgroundImageFix" result="effect1_dropShadow_1_148"/>
<feBlend mode="normal" in="SourceGraphic" in2="effect1_dropShadow_1_148" result="shape"/>
</filter>
</defs>
</svg>
