<svg width="40" height="40" viewBox="0 0 43 43" fill="none" xmlns="http://www.w3.org/2000/svg" class="text-[#00373E] dark:text-white">
<g clip-path="url(#clip0_1_155)">
<path d="M14.4196 5.375C11.0703 5.375 7.85814 6.86041 5.48983 9.50446C3.12152 12.1485 1.79102 15.7346 1.79102 19.4739C1.79102 23.2131 3.12152 26.7992 5.48983 29.4433C7.85814 32.0873 11.0703 33.5727 14.4196 33.5727H16.3499C16.1787 32.2368 16.1787 30.8804 16.3499 29.5445H14.4196C12.0272 29.5445 9.73283 28.4835 8.04118 26.5949C6.34953 24.7062 5.39917 22.1447 5.39917 19.4739C5.39917 16.803 6.34953 14.2415 8.04118 12.3529C9.73283 10.4643 12.0272 9.40324 14.4196 9.40324H28.8522C30.1899 9.40294 31.511 9.73483 32.7197 10.3749C33.9284 11.0149 34.9944 11.9471 35.8406 13.1038C36.6868 14.2606 37.2919 15.613 37.6121 17.0631C37.9324 18.5132 37.9597 20.0246 37.6922 21.488C38.755 22.6515 39.6259 24.0151 40.2648 25.5162C41.1779 23.367 41.5891 20.9948 41.4602 18.6204C41.3312 16.2461 40.6662 13.9467 39.5271 11.9365C38.3881 9.92621 36.8119 8.27038 34.9455 7.12313C33.079 5.97588 30.9828 5.37451 28.8522 5.375H14.4196ZM19.8318 31.5586C19.8321 29.9884 20.1613 28.4401 20.7931 27.0372C21.4249 25.6344 22.3418 24.4159 23.4705 23.4791C24.5992 22.5423 25.9084 21.9131 27.2937 21.6418C28.679 21.3706 30.1019 21.4647 31.4488 21.9167C32.7957 22.3687 34.0293 23.166 35.051 24.2451C36.0728 25.3241 36.8543 26.6549 37.3333 28.1313C37.8123 29.6076 37.9754 31.1885 37.8097 32.7477C37.644 34.307 37.154 35.8014 36.3788 37.1115L40.9521 42.2193L38.4012 45.0673L33.826 39.9615C32.4664 40.9648 30.8887 41.5381 29.2606 41.6205C27.6325 41.7029 26.0148 41.2912 24.5795 40.4294C23.1441 39.5675 21.9447 38.2876 21.1088 36.7257C20.2728 35.1637 19.8315 33.3781 19.8318 31.5586Z" fill="currentcolor"/>
</g>
<defs>
<clipPath id="clip0_1_155">
<rect width="43" height="43" fill="white"/>
</clipPath>
</defs>
</svg>
